<svg xmlns="http://www.w3.org/2000/svg" viewBox="0 0 48 48" xmlns:xlink="http://www.w3.org/1999/xlink" xml:space="preserve" width="100%" height="100%"><g xmlns="http://www.w3.org/2000/svg" fill="currentColor" transform="scale(3)"><path fill-rule="evenodd" d="M14 1H2a1 1 0 0 0-1 1v12a1 1 0 0 0 1 1h12a1 1 0 0 0 1-1V2a1 1 0 0 0-1-1M2 0a2 2 0 0 0-2 2v12a2 2 0 0 0 2 2h12a2 2 0 0 0 2-2V2a2 2 0 0 0-2-2z"></path><path fill-rule="evenodd" d="M8.354 11.354a.5.5 0 0 0 0-.708L5.707 8l2.647-2.646a.5.5 0 1 0-.708-.708l-3 3a.5.5 0 0 0 0 .708l3 3a.5.5 0 0 0 .708 0"></path><path fill-rule="evenodd" d="M11.5 8a.5.5 0 0 0-.5-.5H6a.5.5 0 0 0 0 1h5a.5.5 0 0 0 .5-.5"></path></g></svg>